<svg width="22" height="22" viewBox="0 0 22 22" fill="none" xmlns="http://www.w3.org/2000/svg">
<path d="M16.2314 11.2687C16.1464 11.1835 16.0454 11.1159 15.9342 11.0698C15.823 11.0237 15.7037 10.9999 15.5834 10.9999C15.463 10.9999 15.3438 11.0237 15.2326 11.0698C15.1213 11.1159 15.0203 11.1835 14.9353 11.2687L13.4741 12.7299C12.7967 12.5282 11.5326 12.0699 10.7314 11.2687C9.93027 10.4675 9.47194 9.20344 9.27027 8.52602L10.7314 7.06485C10.8166 6.9798 10.8842 6.87878 10.9303 6.76757C10.9765 6.65637 11.0002 6.53716 11.0002 6.41677C11.0002 6.29638 10.9765 6.17717 10.9303 6.06597C10.8842 5.95476 10.8166 5.85374 10.7314 5.76869L7.06477 2.10202C6.97972 2.01682 6.8787 1.94923 6.76749 1.90311C6.65628 1.85699 6.53708 1.83325 6.41669 1.83325C6.2963 1.83325 6.17709 1.85699 6.06589 1.90311C5.95468 1.94923 5.85366 2.01682 5.7686 2.10202L3.2826 4.58802C2.93427 4.93635 2.7381 5.41485 2.74544 5.90344C2.76652 7.20877 3.1121 11.7426 6.68527 15.3158C10.2584 18.8889 14.7923 19.2336 16.0985 19.2556H16.1242C16.6082 19.2556 17.0656 19.0649 17.4121 18.7184L19.8981 16.2324C19.9833 16.1474 20.0509 16.0464 20.097 15.9352C20.1431 15.824 20.1669 15.7047 20.1669 15.5844C20.1669 15.464 20.1431 15.3448 20.097 15.2336C20.0509 15.1223 19.9833 15.0213 19.8981 14.9363L16.2314 11.2687ZM16.115 17.4214C14.971 17.4021 11.0569 17.095 7.98144 14.0187C4.89594 10.9332 4.5971 7.00527 4.57877 5.88419L6.41669 4.04627L8.78719 6.41677L7.60194 7.60202C7.49419 7.70968 7.41498 7.8425 7.37144 7.98846C7.32791 8.13442 7.32144 8.28893 7.3526 8.43802C7.3746 8.54344 7.91269 11.0432 9.43435 12.5649C10.956 14.0865 13.4558 14.6246 13.5612 14.6466C13.7102 14.6786 13.8649 14.6727 14.0109 14.6293C14.157 14.5859 14.2899 14.5064 14.3972 14.3982L15.5834 13.2129L17.9539 15.5834L16.115 17.4214Z" fill="white"/>
</svg>
