<svg width="19" height="19" viewBox="0 0 19 19" fill="none" xmlns="http://www.w3.org/2000/svg">
<path d="M9.08331 1.58325C4.94331 1.58325 1.58331 4.94325 1.58331 9.08325C1.58331 13.2233 4.94331 16.5833 9.08331 16.5833H12.8333V15.0833H9.08331C5.82831 15.0833 3.08331 12.3383 3.08331 9.08325C3.08331 5.82825 5.82831 3.08325 9.08331 3.08325C12.3383 3.08325 15.0833 5.82825 15.0833 9.08325V10.1558C15.0833 10.7483 14.5508 11.3333 13.9583 11.3333C13.3658 11.3333 12.8333 10.7483 12.8333 10.1558V9.08325C12.8333 7.01325 11.1533 5.33325 9.08331 5.33325C7.01331 5.33325 5.33331 7.01325 5.33331 9.08325C5.33331 11.1533 7.01331 12.8333 9.08331 12.8333C10.1183 12.8333 11.0633 12.4133 11.7383 11.7308C12.2258 12.3983 13.0658 12.8333 13.9583 12.8333C15.4358 12.8333 16.5833 11.6333 16.5833 10.1558V9.08325C16.5833 4.94325 13.2233 1.58325 9.08331 1.58325ZM9.08331 11.3333C7.83831 11.3333 6.83331 10.3283 6.83331 9.08325C6.83331 7.83825 7.83831 6.83325 9.08331 6.83325C10.3283 6.83325 11.3333 7.83825 11.3333 9.08325C11.3333 10.3283 10.3283 11.3333 9.08331 11.3333Z" fill="white"/>
</svg>
