<svg width="20" height="20" viewBox="0 0 20 20" fill="none" xmlns="http://www.w3.org/2000/svg">
<path d="M15.0723 11.0938C15.1524 10.6543 15.1953 10.2051 15.1953 9.75586C15.1953 8.75977 15 7.79297 14.6153 6.88477C14.2442 6.00586 13.711 5.2168 13.0332 4.53906C12.3612 3.86528 11.5645 3.32862 10.6875 2.95898C9.77737 2.57422 8.81252 2.37891 7.81643 2.37891C7.34768 2.37891 6.87697 2.42383 6.41994 2.51172C5.78755 2.17661 5.0829 2.00095 4.36721 2C3.20119 2 2.10353 2.45508 1.27931 3.2793C0.872597 3.68392 0.550125 4.16516 0.330541 4.69518C0.110956 5.22519 -0.00138471 5.79348 1.28815e-05 6.36719C1.28815e-05 7.10938 0.191419 7.83984 0.548842 8.48438C0.476576 8.90234 0.437513 9.33008 0.437513 9.75586C0.437513 10.752 0.632826 11.7188 1.01759 12.627C1.38869 13.5059 1.91994 14.2949 2.59767 14.9727C3.27541 15.6504 4.06447 16.1816 4.94338 16.5527C5.85353 16.9375 6.81838 17.1328 7.81447 17.1328C8.24807 17.1328 8.68166 17.0938 9.10744 17.0176C9.76174 17.3867 10.5 17.584 11.2559 17.584C12.4219 17.584 13.5196 17.1309 14.3438 16.3047C15.17 15.4805 15.6231 14.3828 15.6231 13.2168C15.625 12.4746 15.4336 11.7422 15.0723 11.0938ZM7.84572 14.2754C5.22463 14.2754 4.05275 12.9863 4.05275 12.0215C4.05275 11.5254 4.41799 11.1797 4.92189 11.1797C6.04299 11.1797 5.75393 12.791 7.84572 12.791C8.91799 12.791 9.50979 12.209 9.50979 11.6133C9.50979 11.2559 9.33401 10.8574 8.62698 10.6836L6.29494 10.1016C4.41799 9.63086 4.07619 8.61523 4.07619 7.66211C4.07619 5.68164 5.94143 4.9375 7.69338 4.9375C9.30666 4.9375 11.209 5.83008 11.209 7.01758C11.209 7.52734 10.7676 7.82227 10.2637 7.82227C9.30666 7.82227 9.48244 6.49805 7.55471 6.49805C6.59768 6.49805 6.06838 6.93164 6.06838 7.55078C6.06838 8.16992 6.82424 8.36719 7.48049 8.51758L9.20705 8.90039C11.0977 9.32227 11.5762 10.4258 11.5762 11.4648C11.5762 13.0723 10.3399 14.2754 7.84572 14.2754Z" fill="white"/>
</svg>
